<svg version="1.0" xmlns="http://www.w3.org/2000/svg" width="933.333" height="933.333" viewBox="0 0 700 700"><path d="M386.8 208.5c-.2.1-4.6.6-9.8.9-5.2.4-10.2.9-11 1.1-.8.3-3.1.6-5.1.9-18.2 2.2-43.4 9.8-60.8 18.4-10.5 5.1-31.7 18.4-36.6 22.9-1.1 1-4.7 4.1-8 6.8-3.3 2.8-6.6 5.6-7.4 6.3-3.8 3.6-24.2 21.2-28.1 24.3-9.8 7.7-25.1 15.8-32.5 17.2-1.7.4-5.9.9-9.5 1.3-3.6.3-7.2.7-8 .9-.8.1-4.4.6-8 1-3.6.4-7.2.9-8.1 1-.9.2-4 .6-7 1-8.1 1-28.6 5.1-36.5 7.3-9.8 2.7-38.7 14.3-53.3 21.4-21 10.1-32 18.7-36.2 28.4-1.7 3.8-2 6.6-1.9 24.1.2 18.9.3 20 2.6 25 1.4 2.9 4.5 7 7 9.2 6.5 5.7 11.5 7.1 25.9 7.1h12.1l1.8 7.1c10.6 41.1 56.3 61.5 94.5 42.2 16.6-8.5 31.4-27.9 34.5-45.6l.7-3.7H243v-18.8h-22c-12.1.1-22.3-.2-22.6-.4-.3-.3-.7-1.8-1-3.3-2-10.9-9.5-24.7-18.4-33.5-20.2-20.3-49.8-25.1-75.9-12.4-16.9 8.2-30.1 24.4-34.7 42.7l-1.6 6.7-3.9.1c-17.2.4-18.8.1-22-3l-2.9-2.9v-34.3l3.5-3.4c7-6.5 23.3-14.9 48.5-25 8-3.1 15.9-6.3 17.5-7 7.2-3.1 32.2-8.1 54.5-11 2.5-.3 6.1-.7 8-1 1.9-.2 5.8-.7 8.5-.9 11.3-1.2 16.2-1.7 19.5-2.1 1.9-.3 6.7-.7 10.5-1 3.9-.3 8.8-.8 11-1 16.6-1.5 53.8-1.8 231.5-1.9h201.5l3.1 9c1.7 4.9 3.4 10.8 3.8 12.9.4 2.2 1 5.3 1.4 7 .4 1.6.7 10.6.6 20-.1 15-.4 18.1-2.7 26.5-1.4 5.3-3.5 11.7-4.6 14.3-2.3 5.3-.3 4.8-19.5 4.9-5.4 0-10.2-.4-10.6-.9-.5-.4-1.1-2.2-1.3-3.8-2.5-15.7-15.3-33.5-30.7-42.5-25-14.8-55.5-12-77.4 7-10.2 8.9-18.4 22.4-20.9 34.7l-1.2 5.8-105.7-.1-105.8-.2V435h106c105.3 0 106 0 106 2 0 1.1 0 2.1-.1 2.2 0 .2 1.2 3.6 2.6 7.6 6.6 18.4 18.5 31.3 35.9 39.2 17.3 7.9 39.5 7.4 56.1-1.2 18.6-9.6 30.1-24.3 35.5-45.6l1.1-4.2h37.7l2.9-2.8c4.5-4.6 10.4-21 14.9-41.7 1.4-6.5 1.3-34.9-.2-42.5-.8-4.1-1.7-8.9-2-10.5-1.9-10.8-10.9-31.6-14.5-33.6-1.3-.7-9-1.2-19.8-1.4-19-.3-22.7-1-33-6.6-7.1-3.9-24.2-15.8-27.1-18.9-.8-.9-23.1-18.2-29-22.6-15.8-11.6-40.4-24.9-58-31.4-15.9-5.8-37-10.7-59.5-13.6-5-.6-49.1-1.5-49.7-.9zm.9 56.8l-.2 37.2-72 .1c-39.6.1-74.3.4-77 .8-3.2.5-4.6.4-4-.2.6-.5 3.7-3.3 7-6.2 7-6.2 9.2-8.1 20.5-18.1 33.2-29.4 59.8-41.9 104.4-49.3 1.6-.3 6.6-.8 11-1.2 4.5-.3 8.3-.8 8.5-1 1.6-1.5 1.9 5 1.8 37.9zm47.3-36.9c1.4.3 5.2.7 8.5 1.1 14.9 1.6 39.9 8.2 53.4 14.1 22 9.6 41.2 21.8 69.1 43.9 10.2 8.1 18.6 14.8 18.7 14.9.2.1-39.8.2-88.7.2h-89v-8c-.1-12.9-.1-56.6-.1-62.4l.1-5.4 12.8.6c7 .4 13.8.8 15.2 1zM146.5 380.7c23.1 7.2 37 30.8 32 54.5-4.4 21.4-22.6 36.6-44.6 37.4-26.6 1-48.2-19.8-48.3-46.1 0-10.3.7-13.4 4.9-22.1 4-8.1 12.5-16.8 20.4-20.9 10.1-5.1 24.8-6.2 35.6-2.8zm426.6.3c10.3 3.5 17.9 9.3 23.9 18.2 12 18 10.6 41.4-3.5 57.4-18 20.6-48.8 21.7-68.4 2.6-9.2-9.1-14.1-20.9-14.1-34.3 0-31.3 32.1-54 62.1-43.9z"/></svg>