<svg width="18" height="24" fill="none" xmlns="http://www.w3.org/2000/svg"><path d="M9 0A8.98 8.98 0 00.949 4.971a8.999 8.999 0 00.857 9.429L9 24l7.194-9.6a8.996 8.996 0 00-2.462-13.06A8.98 8.98 0 009 0zm6.27 13.706L9 22.063l-6.27-8.386a7.84 7.84 0 012.156-11.36A7.825 7.825 0 0116 5.473a7.842 7.842 0 01-.731 8.203v.029z" fill="#FFD338"/><path d="M9 4.308A4.678 4.678 0 004.676 7.2a4.688 4.688 0 003.41 6.387 4.676 4.676 0 004.806-1.992A4.687 4.687 0 009 4.308zm0 8.212a3.523 3.523 0 01-3.257-2.177 3.53 3.53 0 012.57-4.81 3.522 3.522 0 013.618 1.5A3.53 3.53 0 019 12.52z" fill="#FFD338"/></svg>