<svg width="21" height="21" fill="none" xmlns="http://www.w3.org/2000/svg"><path d="M4.702 16.332A16.066 16.066 0 0015.83 21c.133 0 .266-.002.399-.006a4.993 4.993 0 004.73-3.88 1.903 1.903 0 00-.921-2.05l-3.857-2.21a1.917 1.917 0 00-2.3.306l-1.775 1.771a.682.682 0 01-.741.15 9.9 9.9 0 01-3.258-2.188 9.91 9.91 0 01-2.189-3.257.682.682 0 01.151-.742L7.841 7.12a1.915 1.915 0 00.305-2.3L5.936.962a1.902 1.902 0 00-2.05-.92 4.992 4.992 0 00-3.88 4.73c-.118 4.17 1.625 8.48 4.658 11.522l.038.038zM4.146 1.18a.65.65 0 01.144-.016.742.742 0 01.633.38L7.133 5.4a.746.746 0 01-.118.896L5.243 8.07a1.846 1.846 0 00-.404 2.008 11.062 11.062 0 002.443 3.64 11.06 11.06 0 003.64 2.444 1.847 1.847 0 002.008-.405l1.774-1.771a.747.747 0 01.897-.12l3.856 2.21a.727.727 0 01.364.779 3.826 3.826 0 01-3.625 2.973c-3.8.109-7.888-1.549-10.66-4.313l-.042-.04c-2.773-2.783-4.43-6.871-4.322-10.67a3.826 3.826 0 012.974-3.626z" fill="#FFD338"/></svg>