<?xml version="1.0" standalone="no"?>
<!DOCTYPE svg PUBLIC "-//W3C//DTD SVG 20010904//EN"
 "http://www.w3.org/TR/2001/REC-SVG-20010904/DTD/svg10.dtd">
<svg version="1.0" xmlns="http://www.w3.org/2000/svg"
 width="700.000000pt" height="700.000000pt" viewBox="0 0 700.000000 700.000000"
 preserveAspectRatio="xMidYMid meet">
<metadata>
Created by potrace 1.11, written by Peter Selinger 2001-2013
</metadata>
<g transform="translate(0.000000,700.000000) scale(0.100000,-0.100000)"
fill="#000000" stroke="none">
<path d="M3868 4915 c-2 -1 -46 -6 -98 -9 -52 -4 -102 -9 -110 -11 -8 -3 -31
-6 -51 -9 -182 -22 -434 -98 -608 -184 -105 -51 -317 -184 -366 -229 -11 -10
-47 -41 -80 -68 -33 -28 -66 -56 -74 -63 -38 -36 -242 -212 -281 -243 -98 -77
-251 -158 -325 -172 -17 -4 -59 -9 -95 -13 -36 -3 -72 -7 -80 -9 -8 -1 -44 -6
-80 -10 -36 -4 -72 -9 -81 -10 -9 -2 -40 -6 -70 -10 -81 -10 -286 -51 -365
-73 -98 -27 -387 -143 -533 -214 -210 -101 -320 -187 -362 -284 -17 -38 -20
-66 -19 -241 2 -189 3 -200 26 -250 14 -29 45 -70 70 -92 65 -57 115 -71 259
-71 l121 0 18 -71 c106 -411 563 -615 945 -422 166 85 314 279 345 456 l7 37
224 0 225 0 0 94 0 94 -220 0 c-121 -1 -223 2 -226 4 -3 3 -7 18 -10 33 -20
109 -95 247 -184 335 -202 203 -498 251 -759 124 -169 -82 -301 -244 -347
-427 l-16 -67 -39 -1 c-172 -4 -188 -1 -220 30 l-29 29 0 172 0 171 35 34 c70
65 233 149 485 250 80 31 159 63 175 70 72 31 322 81 545 110 25 3 61 7 80 10
19 2 58 7 85 9 113 12 162 17 195 21 19 3 67 7 105 10 39 3 88 8 110 10 166
15 538 18 2315 19 l2015 0 31 -90 c17 -49 34 -108 38 -129 4 -22 10 -53 14
-70 4 -16 7 -106 6 -200 -1 -150 -4 -181 -27 -265 -14 -53 -35 -117 -46 -143
-23 -53 -3 -48 -195 -49 -54 0 -102 4 -106 9 -5 4 -11 22 -13 38 -25 157 -153
335 -307 425 -250 148 -555 120 -774 -70 -102 -89 -184 -224 -209 -347 l-12
-58 -1057 1 -1058 2 0 -94 0 -94 1060 0 c1053 0 1060 0 1060 -20 0 -11 0 -21
-1 -22 0 -2 12 -36 26 -76 66 -184 185 -313 359 -392 173 -79 395 -74 561 12
186 96 301 243 355 456 l11 42 189 0 188 0 29 28 c45 46 104 210 149 417 14
65 13 349 -2 425 -8 41 -17 89 -20 105 -19 108 -109 316 -145 336 -13 7 -90
12 -198 14 -190 3 -227 10 -330 66 -71 39 -242 158 -271 189 -8 9 -231 182
-290 226 -158 116 -404 249 -580 314 -159 58 -370 107 -595 136 -50 6 -491 15
-497 9z m9 -568 l-2 -372 -720 -1 c-396 -1 -743 -4 -770 -8 -32 -5 -46 -4 -40
2 6 5 37 33 70 62 70 62 92 81 205 181 332 294 598 419 1044 493 16 3 66 8
110 12 45 3 83 8 85 10 16 15 19 -50 18 -379z m473 369 c14 -3 52 -7 85 -11
149 -16 399 -82 534 -141 220 -96 412 -218 691 -439 102 -81 186 -148 187
-149 2 -1 -398 -2 -887 -2 l-890 0 0 80 c-1 129 -1 566 -1 624 l1 54 128 -6
c70 -4 138 -8 152 -10z m-2885 -1523 c231 -72 370 -308 320 -545 -44 -214
-226 -366 -446 -374 -266 -10 -482 198 -483 461 0 103 7 134 49 221 40 81 125
168 204 209 101 51 248 62 356 28z m4266 -3 c103 -35 179 -93 239 -182 120
-180 106 -414 -35 -574 -180 -206 -488 -217 -684 -26 -92 91 -141 209 -141
343 0 313 321 540 621 439z"/>
</g>
</svg>
