<svg width="18" height="24" viewBox="0 0 18 24" fill="none" xmlns="http://www.w3.org/2000/svg">
<path d="M9 1.16638e-05C7.32882 -0.00268162 5.69001 0.461106 4.26772 1.33926C2.84542 2.21741 1.696 3.47513 0.948631 4.97108C0.201258 6.46703 -0.114457 8.14193 0.0369646 9.80758C0.188386 11.4732 0.800942 13.0636 1.8058 14.4L9 24L16.1942 14.4C17.1991 13.0636 17.8116 11.4732 17.963 9.80758C18.1145 8.14193 17.7987 6.46703 17.0514 4.97108C16.304 3.47513 15.1546 2.21741 13.7323 1.33926C12.31 0.461106 10.6712 -0.00268162 9 1.16638e-05ZM15.2696 13.706L9 22.0627L2.73036 13.6771C1.85982 12.5125 1.33034 11.1284 1.20116 9.67967C1.07198 8.23099 1.34822 6.7749 1.99894 5.47441C2.64967 4.17391 3.6492 3.08033 4.88566 2.31606C6.12213 1.5518 7.54673 1.14701 9 1.14701C10.4533 1.14701 11.8779 1.5518 13.1143 2.31606C14.3508 3.08033 15.3503 4.17391 16.0011 5.47441C16.6518 6.7749 16.928 8.23099 16.7988 9.67967C16.6697 11.1284 16.1402 12.5125 15.2696 13.6771V13.706Z" fill="#FFD338"/>
<path d="M8.9999 4.30835C8.07417 4.30835 7.16924 4.58308 6.39952 5.0978C5.62981 5.61252 5.02989 6.34412 4.67562 7.20007C4.32136 8.05602 4.22867 8.99788 4.40927 9.90655C4.58987 10.8152 5.03565 11.6499 5.69024 12.305C6.34483 12.9601 7.17883 13.4063 8.08677 13.587C8.99471 13.7678 9.93581 13.675 10.7911 13.3204C11.6463 12.9659 12.3773 12.3655 12.8916 11.5952C13.406 10.8248 13.6805 9.91916 13.6805 8.99269C13.6805 7.75032 13.1873 6.55884 12.3096 5.68036C11.4318 4.80188 10.2413 4.30835 8.9999 4.30835ZM8.9999 12.5204C8.30275 12.5204 7.62125 12.3135 7.04159 11.9259C6.46193 11.5382 6.01014 10.9873 5.74335 10.3427C5.47656 9.69808 5.40675 8.98877 5.54276 8.30446C5.67877 7.62016 6.01448 6.99158 6.50744 6.49822C7.00041 6.00486 7.62848 5.66888 8.31223 5.53276C8.99599 5.39664 9.70473 5.4665 10.3488 5.73351C10.9929 6.00051 11.5434 6.45267 11.9307 7.0328C12.318 7.61292 12.5248 8.29497 12.5248 8.99269C12.5248 9.92829 12.1534 10.8256 11.4924 11.4872C10.8313 12.1487 9.93476 12.5204 8.9999 12.5204Z" fill="#FFD338"/>
</svg>
