<svg width="21" height="21" viewBox="0 0 21 21" fill="none" xmlns="http://www.w3.org/2000/svg">
<path d="M4.70208 16.3322C7.66402 19.275 11.6553 20.9492 15.8303 21C15.9632 21 16.096 20.9981 16.2287 20.9944C17.3358 20.9638 18.4014 20.566 19.2576 19.8635C20.1139 19.1609 20.7122 18.1936 20.9584 17.1138C21.0424 16.7187 20.9984 16.3071 20.8329 15.9386C20.6674 15.5701 20.3889 15.2639 20.0377 15.0643L16.1813 12.854C15.8171 12.6462 15.3948 12.5635 14.9792 12.6187C14.5635 12.6739 14.1774 12.8639 13.8801 13.1596L12.1056 14.9312C12.0107 15.0266 11.8898 15.0917 11.7579 15.1185C11.6261 15.1452 11.4893 15.1324 11.3647 15.0815C10.1436 14.5768 9.03587 13.8328 8.10679 12.8933C7.16746 11.9642 6.42342 10.8565 5.91843 9.63563C5.86756 9.511 5.85473 9.37411 5.88154 9.24219C5.90834 9.11028 5.9736 8.98926 6.06907 8.89437L7.84082 7.11945C8.13646 6.82228 8.32644 6.43632 8.3816 6.02079C8.43677 5.60525 8.35408 5.1831 8.14621 4.81909L5.93552 0.962021C5.73593 0.610982 5.4298 0.332567 5.06145 0.167078C4.6931 0.00158864 4.28165 -0.0423878 3.88664 0.0415139C2.8067 0.287618 1.83927 0.88589 1.13666 1.74215C0.434046 2.59841 0.0361509 3.66402 0.00561443 4.77122C-0.112213 8.94257 1.63059 13.2516 4.66402 16.2941L4.70208 16.3322ZM4.14554 1.17922C4.1928 1.16851 4.24112 1.16312 4.28958 1.16315C4.41908 1.16557 4.5457 1.20183 4.65685 1.26834C4.768 1.33485 4.85981 1.42929 4.92315 1.54227L7.13384 5.39933C7.21482 5.5411 7.24704 5.70552 7.22554 5.86736C7.20405 6.0292 7.13004 6.17951 7.01488 6.29523L5.24336 8.06993C4.9852 8.3272 4.80899 8.65516 4.73696 9.01244C4.66493 9.36972 4.70029 9.74033 4.8386 10.0775C5.40195 11.442 6.23265 12.6799 7.28177 13.7183C8.32024 14.7676 9.55824 15.5983 10.9228 16.1616C11.2599 16.2997 11.6303 16.3349 11.9874 16.263C12.3446 16.191 12.6724 16.015 12.9297 15.7572L14.7044 13.9855C14.8202 13.8703 14.9707 13.7962 15.1326 13.7747C15.2946 13.7531 15.4591 13.7853 15.601 13.8663L19.4574 16.0767C19.5927 16.151 19.7008 16.2665 19.7661 16.4064C19.8314 16.5462 19.8505 16.7032 19.8207 16.8546C19.6319 17.6821 19.1733 18.4233 18.5171 18.9616C17.8609 19.4999 17.0443 19.8047 16.1959 19.828C12.3958 19.9366 8.30757 18.2793 5.53508 15.5152L5.49429 15.4741C2.72089 12.6924 1.0647 8.6039 1.17204 4.80428C1.19531 3.9558 1.50009 3.13914 2.03841 2.48287C2.57672 1.8266 3.31799 1.36799 4.14554 1.17922Z" fill="#FFD338"/>
</svg>
